<svg width="3" height="10" viewBox="0 0 3 10" fill="none" xmlns="http://www.w3.org/2000/svg">
<path d="M1.43883 8.28588C1.65908 8.28588 1.8703 8.37337 2.02604 8.52911C2.18178 8.68485 2.26927 8.89607 2.26927 9.11632C2.26927 9.33656 2.18178 9.54778 2.02604 9.70352C1.8703 9.85926 1.65908 9.94675 1.43883 9.94675C1.21859 9.94675 1.00736 9.85926 0.851627 9.70352C0.69589 9.54778 0.608398 9.33656 0.608398 9.11632C0.608398 8.89607 0.69589 8.68485 0.851627 8.52911C1.00736 8.37337 1.21859 8.28588 1.43883 8.28588ZM1.43883 4.41052C1.65908 4.41052 1.8703 4.49801 2.02604 4.65375C2.18178 4.80948 2.26927 5.02071 2.26927 5.24095C2.26927 5.4612 2.18178 5.67242 2.02604 5.82816C1.8703 5.9839 1.65908 6.07139 1.43883 6.07139C1.21859 6.07139 1.00736 5.9839 0.851627 5.82816C0.69589 5.67242 0.608398 5.4612 0.608398 5.24095C0.608398 5.02071 0.69589 4.80948 0.851627 4.65375C1.00736 4.49801 1.21859 4.41052 1.43883 4.41052ZM1.43883 0.535156C1.65908 0.535156 1.8703 0.622648 2.02604 0.778385C2.18178 0.934122 2.26927 1.14535 2.26927 1.36559C2.26927 1.58584 2.18178 1.79706 2.02604 1.9528C1.8703 2.10853 1.65908 2.19603 1.43883 2.19603C1.21859 2.19603 1.00736 2.10853 0.851627 1.9528C0.69589 1.79706 0.608398 1.58584 0.608398 1.36559C0.608398 1.14535 0.69589 0.934122 0.851627 0.778385C1.00736 0.622648 1.21859 0.535156 1.43883 0.535156Z" fill="#667085"/>
</svg>
